<svg width="20" height="20" viewBox="0 0 20 20" fill="none" xmlns="http://www.w3.org/2000/svg">
<path fill-rule="evenodd" clip-rule="evenodd" d="M9.90559 0.0739441C12.5335 0.0739441 15.0033 1.09565 16.8583 2.95154C20.6927 6.78589 20.6927 13.024 16.8583 16.8584C14.9786 18.739 12.4476 19.7342 9.88364 19.7342C8.48596 19.7342 7.07914 19.4387 5.76288 18.8295C5.37504 18.674 5.01191 18.5277 4.75121 18.5277C4.45119 18.5295 4.0478 18.6685 3.65814 18.803C2.85868 19.0774 1.86348 19.4195 1.12714 18.6859C0.393546 17.9514 0.731988 16.959 1.00457 16.1605C1.13903 15.7672 1.27715 15.3611 1.27715 15.0537C1.27715 14.8013 1.1555 14.4793 0.968897 14.0156C-0.74435 10.3157 0.047787 5.85657 2.95381 2.95245C4.80884 1.09656 7.27764 0.0739441 9.90559 0.0739441ZM9.90651 1.44597C7.64443 1.44597 5.51957 2.3259 3.9234 3.92293C1.42259 6.42185 0.74205 10.2589 2.22845 13.4722C2.44249 14.0018 2.64922 14.5177 2.64922 15.0537C2.64922 15.5888 2.46536 16.1276 2.30346 16.6032C2.16991 16.9947 1.96776 17.5856 2.09765 17.7155C2.22479 17.8472 2.81935 17.6395 3.21176 17.5051C3.68284 17.3441 4.21702 17.1593 4.74664 17.1557C5.27717 17.1557 5.77752 17.3569 6.30713 17.57C9.5516 19.0701 13.3888 18.3877 15.8887 15.8888C19.1871 12.5886 19.1871 7.22037 15.8887 3.92202C14.2916 2.32498 12.1677 1.44597 9.90651 1.44597ZM13.5168 9.3696C14.0217 9.3696 14.4315 9.77846 14.4315 10.2843C14.4315 10.7901 14.0217 11.199 13.5168 11.199C13.0118 11.199 12.5984 10.7901 12.5984 10.2843C12.5984 9.77846 13.0036 9.3696 13.5085 9.3696H13.5168ZM9.84989 9.3696C10.3548 9.3696 10.7646 9.77846 10.7646 10.2843C10.7646 10.7901 10.3548 11.199 9.84989 11.199C9.34497 11.199 8.93152 10.7901 8.93152 10.2843C8.93152 9.77846 9.33582 9.3696 9.84165 9.3696H9.84989ZM6.18264 9.3696C6.68756 9.3696 7.09735 9.77846 7.09735 10.2843C7.09735 10.7901 6.68756 11.199 6.18264 11.199C5.67772 11.199 5.26427 10.7901 5.26427 10.2843C5.26427 9.77846 5.66949 9.3696 6.17441 9.3696H6.18264Z" fill="#71839B"/>
</svg>
