<svg width="19" height="18" viewBox="0 0 19 18" fill="none" xmlns="http://www.w3.org/2000/svg">
<path d="M12.2376 17.9721C11.8892 17.9667 11.5488 17.8675 11.2521 17.685C10.9553 17.5025 10.7132 17.2434 10.5512 16.935L7.61698 11.5725C7.55308 11.4498 7.453 11.3497 7.33031 11.2858L1.96775 8.39374C1.62701 8.20865 1.34837 7.92725 1.16664 7.58472C0.984903 7.24218 0.908131 6.85368 0.945913 6.46777C0.983695 6.08185 1.13436 5.71562 1.37907 5.41483C1.62379 5.11405 1.95172 4.89204 2.32188 4.77654L16.2932 0.113813C16.646 -0.0112226 17.027 -0.033762 17.3921 0.0488053C17.7572 0.131373 18.0915 0.315669 18.3562 0.580353C18.6209 0.845038 18.8052 1.17928 18.8877 1.54438C18.9703 1.90948 18.9477 2.2905 18.8227 2.64332L14.1263 16.6231C14.0082 16.9876 13.7853 17.3093 13.4853 17.5478C13.1853 17.7862 12.8217 17.9309 12.4399 17.9637L12.2376 17.9721ZM16.6558 1.31955L2.68444 5.98227C2.55125 6.0251 2.43372 6.10641 2.34669 6.21595C2.25965 6.32549 2.20701 6.45836 2.1954 6.59779C2.18282 6.73555 2.21134 6.87395 2.27737 6.99551C2.34341 7.11707 2.44398 7.21633 2.5664 7.28076L7.92896 10.1728C8.27004 10.3537 8.54906 10.6328 8.72997 10.9738L11.5967 16.3364C11.6612 16.4588 11.7604 16.5594 11.882 16.6254C12.0036 16.6915 12.142 16.72 12.2797 16.7074C12.4191 16.6958 12.552 16.6431 12.6615 16.5561C12.7711 16.4691 12.8524 16.3515 12.8952 16.2184L17.5833 2.24703C17.6378 2.1173 17.6525 1.97425 17.6254 1.83613C17.5984 1.69801 17.5307 1.5711 17.4312 1.47158C17.3317 1.37205 17.2048 1.30444 17.0667 1.27736C16.9285 1.25028 16.7855 1.26497 16.6558 1.31955Z" fill="white"/>
<path d="M7.94618 11.5893C7.86288 11.5912 7.78011 11.5757 7.70316 11.5437C7.62621 11.5118 7.55678 11.4642 7.4993 11.4038C7.43964 11.3457 7.39222 11.2762 7.35985 11.1995C7.32747 11.1227 7.31079 11.0403 7.31079 10.957C7.31079 10.8737 7.32747 10.7912 7.35985 10.7145C7.39222 10.6377 7.43964 10.5682 7.4993 10.5101L17.415 0.56068C17.538 0.437688 17.7048 0.368591 17.8787 0.368591C18.0527 0.368591 18.2195 0.437688 18.3425 0.56068C18.4655 0.683672 18.5345 0.850486 18.5345 1.02442C18.5345 1.19836 18.4655 1.36517 18.3425 1.48817L8.39306 11.4038C8.33467 11.463 8.26507 11.5098 8.18833 11.5417C8.11159 11.5735 8.02926 11.5897 7.94618 11.5893Z" fill="white"/>
</svg>
