<svg width="23" height="26" viewBox="0 0 23 26" fill="none" xmlns="http://www.w3.org/2000/svg">
<path fill-rule="evenodd" clip-rule="evenodd" d="M22.8654 4.83127C22.9409 6.11437 22.4801 7.443 21.3363 8.58677L9.25113 20.6719C8.61086 21.3122 7.8487 21.5841 7.10067 21.5402C6.37022 21.4974 5.70771 21.1569 5.2227 20.6719C4.73768 20.1869 4.39741 19.5245 4.35442 18.7941C4.31039 18.0461 4.58243 17.2838 5.2227 16.6436L15.7972 6.06913C16.0753 5.79108 16.5262 5.79108 16.8044 6.06913C17.0824 6.34718 17.0824 6.79807 16.8044 7.07627L6.22984 17.6506C5.86297 18.0175 5.75731 18.3883 5.77624 18.7102C5.79623 19.0498 5.95946 19.3944 6.22984 19.6648C6.50023 19.9352 6.84486 20.0984 7.18438 20.1184C7.50647 20.1373 7.87726 20.0317 8.24413 19.6648L20.3294 7.57962C21.1998 6.7091 21.4944 5.77184 21.4439 4.91484C21.3923 4.04025 20.9775 3.19212 20.3294 2.54419C19.6814 1.8961 18.8332 1.48113 17.9586 1.42973C17.1016 1.37938 16.1644 1.67381 15.2939 2.54419L3.20855 14.6293C1.83453 16.0034 1.35132 17.5071 1.43323 18.8992C1.5162 20.3088 2.18292 21.6604 3.20855 22.6861C4.23419 23.7118 5.58597 24.3786 6.99546 24.4614C8.38752 24.5433 9.89125 24.0601 11.2653 22.6861L16.8044 17.147C17.0826 16.8689 17.5333 16.8689 17.8115 17.147C18.0897 17.4252 18.0897 17.8761 17.8115 18.1541L12.2724 23.6932C10.6252 25.3405 8.7299 25.9902 6.91189 25.8834C5.11132 25.7775 3.44182 24.9335 2.20141 23.6932C0.961149 22.453 0.117226 20.7833 0.0112657 18.9827C-0.0957464 17.1647 0.553991 15.2696 2.20126 13.6222L14.2864 1.53704C15.4302 0.393275 16.759 -0.0675384 18.0419 0.00791119C19.3076 0.0823087 20.4736 0.674483 21.3361 1.53704C22.1988 2.3996 22.7912 3.56561 22.8654 4.83127Z" fill="#004AAD"/>
</svg>
