<svg width="38" height="38" viewBox="0 0 38 38" fill="none" xmlns="http://www.w3.org/2000/svg">
<circle cx="18.904" cy="18.904" r="18.904" fill="#F8F8F8"/>
<path fill-rule="evenodd" clip-rule="evenodd" d="M18.9056 9.07394C21.5335 9.07394 24.0033 10.0956 25.8583 11.9515C29.6927 15.7859 29.6927 22.024 25.8583 25.8584C23.9786 27.739 21.4476 28.7342 18.8836 28.7342C17.486 28.7342 16.0791 28.4387 14.7629 27.8295C14.375 27.674 14.0119 27.5277 13.7512 27.5277C13.4512 27.5295 13.0478 27.6685 12.6581 27.803C11.8587 28.0774 10.8635 28.4195 10.1271 27.6859C9.39355 26.9514 9.73199 25.959 10.0046 25.1605C10.139 24.7672 10.2772 24.3611 10.2772 24.0537C10.2772 23.8013 10.1555 23.4793 9.9689 23.0156C8.25565 19.3157 9.04779 14.8566 11.9538 11.9525C13.8088 10.0966 16.2776 9.07394 18.9056 9.07394ZM18.9065 10.446C16.6444 10.446 14.5196 11.3259 12.9234 12.9229C10.4226 15.4218 9.74205 19.2589 11.2285 22.4722C11.4425 23.0018 11.6492 23.5177 11.6492 24.0537C11.6492 24.5888 11.4654 25.1276 11.3035 25.6032C11.1699 25.9947 10.9678 26.5856 11.0976 26.7155C11.2248 26.8472 11.8194 26.6395 12.2118 26.5051C12.6828 26.3441 13.217 26.1593 13.7466 26.1557C14.2772 26.1557 14.7775 26.3569 15.3071 26.57C18.5516 28.0701 22.3888 27.3877 24.8887 24.8888C28.1871 21.5886 28.1871 16.2204 24.8887 12.922C23.2916 11.325 21.1677 10.446 18.9065 10.446ZM22.5168 18.3696C23.0217 18.3696 23.4315 18.7785 23.4315 19.2843C23.4315 19.7901 23.0217 20.199 22.5168 20.199C22.0118 20.199 21.5984 19.7901 21.5984 19.2843C21.5984 18.7785 22.0036 18.3696 22.5085 18.3696H22.5168ZM18.8499 18.3696C19.3548 18.3696 19.7646 18.7785 19.7646 19.2843C19.7646 19.7901 19.3548 20.199 18.8499 20.199C18.345 20.199 17.9315 19.7901 17.9315 19.2843C17.9315 18.7785 18.3358 18.3696 18.8417 18.3696H18.8499ZM15.1826 18.3696C15.6876 18.3696 16.0973 18.7785 16.0973 19.2843C16.0973 19.7901 15.6876 20.199 15.1826 20.199C14.6777 20.199 14.2643 19.7901 14.2643 19.2843C14.2643 18.7785 14.6695 18.3696 15.1744 18.3696H15.1826Z" fill="#71839B"/>
</svg>
